<svg xmlns="http://www.w3.org/2000/svg" xmlns:xlink="http://www.w3.org/1999/xlink" width="500" zoomAndPan="magnify" viewBox="0 0 375 374.999991" height="500" preserveAspectRatio="xMidYMid meet" version="1.0"><defs><g/></defs><g fill="#e12c2c" fill-opacity="1"><g transform="translate(3.525503, 195.437888)"><g><path d="M 62.96875 -41.3125 C 62.96875 -37.675781 61.988281 -34.382812 60.03125 -31.4375 C 58.070312 -28.5 55.210938 -26.335938 51.453125 -24.953125 L 64.703125 0 L 43.21875 0 L 32.65625 -21.75 L 25.546875 -21.75 L 25.546875 0 L 6.40625 0 L 6.40625 -59.59375 L 42.875 -59.59375 C 47.15625 -59.59375 50.8125 -58.769531 53.84375 -57.125 C 56.875 -55.476562 59.148438 -53.253906 60.671875 -50.453125 C 62.203125 -47.648438 62.96875 -44.601562 62.96875 -41.3125 Z M 43.484375 -40.546875 C 43.484375 -42.097656 42.960938 -43.394531 41.921875 -44.4375 C 40.890625 -45.476562 39.617188 -46 38.109375 -46 L 25.546875 -46 L 25.546875 -35 L 38.109375 -35 C 39.617188 -35 40.890625 -35.53125 41.921875 -36.59375 C 42.960938 -37.664062 43.484375 -38.984375 43.484375 -40.546875 Z M 43.484375 -40.546875 "/></g></g></g><g fill="#e12c2c" fill-opacity="1"><g transform="translate(65.968751, 195.437888)"><g><path d="M 36.03125 -60.640625 C 46.3125 -60.640625 54.253906 -58.007812 59.859375 -52.75 C 65.460938 -47.5 68.265625 -39.847656 68.265625 -29.796875 C 68.265625 -19.742188 65.460938 -12.085938 59.859375 -6.828125 C 54.253906 -1.578125 46.3125 1.046875 36.03125 1.046875 C 25.75 1.046875 17.820312 -1.566406 12.25 -6.796875 C 6.675781 -12.023438 3.890625 -19.691406 3.890625 -29.796875 C 3.890625 -39.898438 6.675781 -47.566406 12.25 -52.796875 C 17.820312 -58.023438 25.75 -60.640625 36.03125 -60.640625 Z M 36.03125 -46.34375 C 31.9375 -46.34375 28.816406 -45.097656 26.671875 -42.609375 C 24.535156 -40.128906 23.46875 -36.785156 23.46875 -32.578125 L 23.46875 -27.03125 C 23.46875 -22.8125 24.535156 -19.457031 26.671875 -16.96875 C 28.816406 -14.488281 31.9375 -13.25 36.03125 -13.25 C 40.132812 -13.25 43.269531 -14.488281 45.4375 -16.96875 C 47.601562 -19.457031 48.6875 -22.8125 48.6875 -27.03125 L 48.6875 -32.578125 C 48.6875 -36.785156 47.601562 -40.128906 45.4375 -42.609375 C 43.269531 -45.097656 40.132812 -46.34375 36.03125 -46.34375 Z M 36.03125 -46.34375 "/></g></g></g><g fill="#e12c2c" fill-opacity="1"><g transform="translate(133.175416, 195.437888)"><g><path d="M 36.03125 -60.640625 C 46.3125 -60.640625 54.253906 -58.007812 59.859375 -52.75 C 65.460938 -47.5 68.265625 -39.847656 68.265625 -29.796875 C 68.265625 -19.742188 65.460938 -12.085938 59.859375 -6.828125 C 54.253906 -1.578125 46.3125 1.046875 36.03125 1.046875 C 25.75 1.046875 17.820312 -1.566406 12.25 -6.796875 C 6.675781 -12.023438 3.890625 -19.691406 3.890625 -29.796875 C 3.890625 -39.898438 6.675781 -47.566406 12.25 -52.796875 C 17.820312 -58.023438 25.75 -60.640625 36.03125 -60.640625 Z M 36.03125 -46.34375 C 31.9375 -46.34375 28.816406 -45.097656 26.671875 -42.609375 C 24.535156 -40.128906 23.46875 -36.785156 23.46875 -32.578125 L 23.46875 -27.03125 C 23.46875 -22.8125 24.535156 -19.457031 26.671875 -16.96875 C 28.816406 -14.488281 31.9375 -13.25 36.03125 -13.25 C 40.132812 -13.25 43.269531 -14.488281 45.4375 -16.96875 C 47.601562 -19.457031 48.6875 -22.8125 48.6875 -27.03125 L 48.6875 -32.578125 C 48.6875 -36.785156 47.601562 -40.128906 45.4375 -42.609375 C 43.269531 -45.097656 40.132812 -46.34375 36.03125 -46.34375 Z M 36.03125 -46.34375 "/></g></g></g><g fill="#e12c2c" fill-opacity="1"><g transform="translate(200.382077, 195.437888)"><g><path d="M 57.609375 0 L 57.609375 -21.484375 C 57.609375 -24.140625 57.707031 -26.867188 57.90625 -29.671875 C 58.113281 -32.472656 58.332031 -34.828125 58.5625 -36.734375 C 58.789062 -38.640625 58.929688 -39.851562 58.984375 -40.375 L 58.640625 -40.375 L 47.640625 0 L 32.65625 0 L 21.5625 -40.28125 L 21.21875 -40.28125 C 21.28125 -39.757812 21.441406 -38.5625 21.703125 -36.6875 C 21.960938 -34.8125 22.207031 -32.472656 22.4375 -29.671875 C 22.664062 -26.867188 22.78125 -24.140625 22.78125 -21.484375 L 22.78125 0 L 5.203125 0 L 5.203125 -59.59375 L 32.21875 -59.59375 L 41.234375 -25.203125 L 41.578125 -25.203125 L 50.5 -59.59375 L 76.578125 -59.59375 L 76.578125 0 Z M 57.609375 0 "/></g></g></g><g fill="#e12c2c" fill-opacity="1"><g transform="translate(277.202197, 195.437888)"><g><path d="M 7.28125 0 L 7.28125 -59.59375 L 26.421875 -59.59375 L 26.421875 0 Z M 7.28125 0 "/></g></g></g><g fill="#e12c2c" fill-opacity="1"><g transform="translate(305.955081, 195.437888)"><g><path d="M 6.40625 -59.59375 L 57.953125 -59.59375 L 57.953125 -45.3125 L 25.546875 -45.3125 L 25.546875 -37.078125 L 53.28125 -37.078125 L 53.28125 -23.390625 L 25.546875 -23.390625 L 25.546875 -14.296875 L 58.5625 -14.296875 L 58.5625 0 L 6.40625 0 Z M 6.40625 -59.59375 "/></g></g></g><g fill="#e12c2c" fill-opacity="1"><g transform="translate(227.122723, 223.962847)"><g><path d="M 17.019531 -4.625 C 16.746094 -6.914062 16.027344 -8.371094 14.046875 -9.089844 C 16.578125 -9.832031 17.875 -11.429688 17.875 -13.824219 C 17.875 -17.183594 15.476562 -18.535156 12.722656 -18.863281 C 11.703125 -18.976562 10.933594 -19.003906 9.75 -19.003906 L 2.203125 -19.003906 L 2.203125 0 L 7.160156 0 L 7.160156 -7.214844 L 8.261719 -7.214844 C 8.8125 -7.214844 9.28125 -7.214844 9.832031 -7.1875 C 11.097656 -7.105469 11.925781 -5.894531 12.171875 -3.800781 C 12.339844 -2.449219 12.613281 -1.347656 13.054688 0 L 18.453125 0 C 17.707031 -1.128906 17.269531 -2.480469 17.019531 -4.625 Z M 7.160156 -10.796875 L 7.160156 -15.148438 L 9.089844 -15.148438 C 9.613281 -15.148438 10.050781 -15.148438 10.410156 -15.121094 C 11.675781 -15.007812 12.695312 -14.570312 12.695312 -12.972656 C 12.695312 -11.375 11.539062 -10.933594 10.273438 -10.824219 C 9.914062 -10.796875 9.472656 -10.796875 8.949219 -10.796875 Z M 7.160156 -10.796875 "/></g></g></g><g fill="#e12c2c" fill-opacity="1"><g transform="translate(245.050595, 223.962847)"><g><path d="M 11.207031 -19.386719 C 5.289062 -19.386719 1.488281 -15.613281 1.488281 -9.5 C 1.488281 -3.414062 5.289062 0.386719 11.207031 0.386719 C 17.128906 0.386719 20.929688 -3.414062 20.929688 -9.5 C 20.929688 -15.613281 17.128906 -19.386719 11.207031 -19.386719 Z M 11.207031 -3.25 C 8.34375 -3.25 6.554688 -5.480469 6.554688 -9.5 C 6.554688 -13.550781 8.34375 -15.753906 11.207031 -15.753906 C 14.074219 -15.753906 15.863281 -13.550781 15.863281 -9.5 C 15.863281 -5.480469 14.074219 -3.25 11.207031 -3.25 Z M 11.207031 -3.25 "/></g></g></g><g fill="#e12c2c" fill-opacity="1"><g transform="translate(265.897613, 223.962847)"><g><path d="M 18.726562 -19.003906 L 13.769531 -19.003906 L 13.769531 -7.4375 C 13.769531 -6.914062 13.769531 -6.636719 13.742188 -6.308594 C 13.605469 -4.324219 12.476562 -3.25 10.300781 -3.25 C 8.125 -3.25 6.996094 -4.324219 6.859375 -6.308594 C 6.828125 -6.636719 6.828125 -6.914062 6.828125 -7.4375 L 6.828125 -19.003906 L 1.871094 -19.003906 L 1.871094 -8.34375 C 1.871094 -7.378906 1.871094 -6.800781 1.957031 -5.671875 C 2.175781 -2.480469 4.433594 0.386719 10.300781 0.386719 C 16.164062 0.386719 18.425781 -2.480469 18.644531 -5.671875 C 18.726562 -6.800781 18.726562 -7.378906 18.726562 -8.34375 Z M 18.726562 -19.003906 "/></g></g></g><g fill="#e12c2c" fill-opacity="1"><g transform="translate(284.816895, 223.962847)"><g><path d="M 20.378906 0 L 20.378906 -19.003906 L 15.421875 -19.003906 L 15.421875 -10.878906 C 15.421875 -9.777344 15.449219 -7.820312 15.585938 -5.894531 L 8.371094 -19.003906 L 2.203125 -19.003906 L 2.203125 0 L 7.160156 0 L 7.160156 -7.847656 C 7.160156 -8.949219 7.160156 -10.628906 6.996094 -12.558594 L 13.90625 0 Z M 20.378906 0 "/></g></g></g><g fill="#e12c2c" fill-opacity="1"><g transform="translate(305.829157, 223.962847)"><g><path d="M 11.816406 -18.890625 C 10.851562 -19.003906 10.410156 -19.003906 9.390625 -19.003906 L 2.203125 -19.003906 L 2.203125 0 L 9.390625 0 C 10.410156 0 10.851562 0 11.816406 -0.109375 C 16.222656 -0.605469 19.855469 -3.800781 19.855469 -9.75 C 19.855469 -15.699219 16.222656 -18.398438 11.816406 -18.890625 Z M 10.492188 -3.910156 C 9.859375 -3.855469 9.417969 -3.855469 8.703125 -3.855469 L 7.160156 -3.855469 L 7.160156 -15.148438 L 8.703125 -15.148438 C 9.417969 -15.148438 9.859375 -15.148438 10.492188 -15.09375 C 12.972656 -14.871094 14.679688 -13.054688 14.679688 -9.667969 C 14.679688 -6.277344 12.972656 -4.132812 10.492188 -3.910156 Z M 10.492188 -3.910156 "/></g></g></g><g fill="#e12c2c" fill-opacity="1"><g transform="translate(325.602149, 223.962847)"><g><path d="M 18.726562 -19.003906 L 13.769531 -19.003906 L 13.769531 -7.4375 C 13.769531 -6.914062 13.769531 -6.636719 13.742188 -6.308594 C 13.605469 -4.324219 12.476562 -3.25 10.300781 -3.25 C 8.125 -3.25 6.996094 -4.324219 6.859375 -6.308594 C 6.828125 -6.636719 6.828125 -6.914062 6.828125 -7.4375 L 6.828125 -19.003906 L 1.871094 -19.003906 L 1.871094 -8.34375 C 1.871094 -7.378906 1.871094 -6.800781 1.957031 -5.671875 C 2.175781 -2.480469 4.433594 0.386719 10.300781 0.386719 C 16.164062 0.386719 18.425781 -2.480469 18.644531 -5.671875 C 18.726562 -6.800781 18.726562 -7.378906 18.726562 -8.34375 Z M 18.726562 -19.003906 "/></g></g></g><g fill="#e12c2c" fill-opacity="1"><g transform="translate(344.521428, 223.962847)"><g><path d="M 12.339844 -18.863281 C 11.320312 -18.976562 10.546875 -19.003906 9.363281 -19.003906 L 2.203125 -19.003906 L 2.203125 0 L 7.160156 0 L 7.160156 -6.664062 L 9.363281 -6.664062 C 10.546875 -6.664062 11.320312 -6.691406 12.339844 -6.800781 C 15.09375 -7.132812 17.597656 -9.089844 17.597656 -12.832031 C 17.597656 -16.578125 15.09375 -18.535156 12.339844 -18.863281 Z M 10.410156 -10.546875 C 10.050781 -10.519531 9.613281 -10.519531 9.089844 -10.519531 L 7.160156 -10.519531 L 7.160156 -15.148438 L 9.089844 -15.148438 C 9.613281 -15.148438 10.050781 -15.148438 10.410156 -15.121094 C 11.675781 -15.007812 12.421875 -14.265625 12.421875 -12.832031 C 12.421875 -11.402344 11.675781 -10.65625 10.410156 -10.546875 Z M 10.410156 -10.546875 "/></g></g></g></svg>